# Blender v2.92.0 OBJ File: ''
# www.blender.org
mtllib battery_pack.mtl
o battery_pack.gr2
v 0.056749 0.118802 0.309977
v -0.018413 0.185364 0.295039
v 0.018338 0.118802 0.264201
v -0.246146 0.081646 -0.171335
v 0.115764 0.157426 0.187110
v 0.079887 0.081646 0.217215
v 0.204873 0.397715 0.112339
v 0.153148 0.247594 0.155742
v 0.202828 0.308670 0.114056
v 0.070988 0.233339 0.298029
v 0.107738 0.166777 0.267192
v 0.019998 0.185364 0.340815
v 0.295566 0.150333 0.109586
v 0.217987 0.206973 0.174682
v 0.235082 0.128017 0.160338
v 0.278471 0.229289 0.123930
v 0.199179 0.377002 0.190464
v 0.116075 0.335830 0.260197
v 0.173397 0.302173 0.212098
v 0.141857 0.410659 0.238562
v 0.069328 0.166777 0.221416
v 0.032577 0.233339 0.252253
v -0.370614 0.108014 -0.066894
v 0.013469 0.061178 0.272946
v -0.044582 0.108013 0.321657
v -0.312564 0.061179 -0.115604
v -0.210268 0.157426 -0.201440
v 0.100086 0.244127 0.200267
v -0.225947 0.244128 -0.188284
v -0.386293 0.194715 -0.053738
v -0.060261 0.194715 0.334813
v -0.350415 0.270495 -0.083843
v -0.024383 0.270495 0.304708
v -0.283998 0.290963 -0.139573
v 0.042035 0.290962 0.248977
v 0.196671 0.128017 0.114561
v 0.257155 0.150333 0.063809
v 0.240060 0.229289 0.078154
v 0.179576 0.206973 0.128906
v -0.129624 0.290660 -0.269109
v 0.142841 0.235468 0.164391
v 0.196409 0.290660 0.119441
v -0.183192 0.235468 -0.224160
v 0.134858 0.146995 0.171089
v -0.191175 0.146995 -0.217461
v 0.177137 0.077066 0.135613
v -0.148896 0.077066 -0.252938
v 0.244911 0.066646 0.078743
v -0.081121 0.066645 -0.309807
v -0.061849 0.280239 -0.325979
v 0.264184 0.280239 0.062572
v -0.019570 0.210310 -0.361455
v 0.306463 0.210310 0.027095
v -0.027553 0.121837 -0.354757
v 0.298480 0.121837 0.033794
v 0.134986 0.302173 0.166322
v 0.160769 0.377002 0.144687
v 0.103447 0.410659 0.192786
v 0.077664 0.335830 0.214421
v -0.285839 0.404162 -0.138029
v 0.038148 0.315117 0.252238
v 0.040194 0.404162 0.250521
v -0.287884 0.315117 -0.136313
v 0.084935 0.250264 0.212979
v -0.241097 0.250264 -0.175572
v -0.172885 0.247594 -0.232808
v -0.123205 0.308670 -0.274495
v -0.236159 0.465238 -0.179715
v 0.089874 0.465238 0.208835
v -0.167947 0.462567 -0.236952
v 0.158086 0.462567 0.151598
v -0.121160 0.397715 -0.276211
vt 0.047850 0.620405
vt 0.152854 0.476229
vt 0.152853 0.620405
vt 0.968851 0.850327
vt 0.619388 0.911704
vt 0.619388 0.850325
vt 0.332012 0.908373
vt 0.513883 0.985573
vt 0.406959 0.984640
vt 0.061575 0.832923
vt 0.148139 0.919486
vt 0.061575 0.919486
vt 0.148139 0.832923
vt 0.061575 0.832923
vt 0.148139 0.919486
vt 0.061575 0.919486
vt 0.148139 0.832923
vt 0.061575 0.832923
vt 0.148139 0.919486
vt 0.061575 0.919486
vt 0.148139 0.832923
vt 0.152855 0.187876
vt 0.047851 0.332052
vt 0.047851 0.187876
vt 0.152855 0.332053
vt 0.047850 0.476228
vt 0.152853 0.764582
vt 0.047849 0.764581
vt 0.968852 0.727567
vt 0.619388 0.788946
vt 0.619388 0.727566
vt 0.968851 0.788947
vt 0.968851 0.911705
vt 0.619388 0.973082
vt 0.968851 0.973084
vt 0.619388 0.976133
vt 0.968851 0.914752
vt 0.968851 0.976134
vt 0.619388 0.914751
vt 0.968851 0.853372
vt 0.619388 0.853371
vt 0.968851 0.791992
vt 0.619388 0.791991
vt 0.968852 0.730614
vt 0.619388 0.730613
vt 0.152855 0.187876
vt 0.047851 0.332052
vt 0.047851 0.187876
vt 0.152855 0.332053
vt 0.047850 0.476228
vt 0.152854 0.476229
vt 0.047850 0.620405
vt 0.152853 0.620405
vt 0.152853 0.764582
vt 0.047849 0.764581
vt 0.968852 0.727567
vt 0.619388 0.788946
vt 0.619388 0.727566
vt 0.968851 0.788947
vt 0.619388 0.850325
vt 0.968851 0.850327
vt 0.619388 0.911704
vt 0.968851 0.911705
vt 0.619388 0.973082
vt 0.968851 0.973084
vt 0.619388 0.976133
vt 0.968851 0.914752
vt 0.968851 0.976134
vt 0.619388 0.914751
vt 0.968851 0.853372
vt 0.619388 0.853371
vt 0.968851 0.791992
vt 0.619388 0.791991
vt 0.968852 0.730614
vt 0.619388 0.730613
vt 0.152855 0.187876
vt 0.047851 0.332052
vt 0.047851 0.187876
vt 0.152855 0.332053
vt 0.047850 0.476228
vt 0.152854 0.476229
vt 0.047850 0.620405
vt 0.152853 0.620405
vt 0.152853 0.764582
vt 0.047849 0.764581
vt 0.968852 0.727567
vt 0.619388 0.788946
vt 0.619388 0.727566
vt 0.968851 0.788947
vt 0.619388 0.850325
vt 0.968851 0.850327
vt 0.619388 0.911704
vt 0.968851 0.911705
vt 0.619388 0.973082
vt 0.968851 0.973084
vt 0.619388 0.976133
vt 0.968851 0.914752
vt 0.968851 0.976134
vt 0.619388 0.914751
vt 0.968851 0.853372
vt 0.619388 0.853371
vt 0.968851 0.791992
vt 0.619388 0.791991
vt 0.968852 0.730614
vt 0.619388 0.730613
vt 0.591083 0.803701
vt 0.590150 0.910626
vt 0.513883 0.985573
vt 0.332012 0.908373
vt 0.406959 0.984640
vt 0.409212 0.726502
vt 0.332945 0.801449
vt 0.516136 0.727435
vt 0.590150 0.910626
vt 0.513883 0.985573
vt 0.406959 0.984640
vt 0.332945 0.801449
vt 0.332012 0.908373
vt 0.516136 0.727435
vt 0.409212 0.726502
vt 0.591083 0.803701
vt 0.591083 0.803701
vt 0.590150 0.910626
vt 0.513883 0.985573
vt 0.332012 0.908373
vt 0.406959 0.984640
vt 0.409212 0.726502
vt 0.332945 0.801449
vt 0.516136 0.727435
vt 0.590150 0.910626
vt 0.513883 0.985573
vt 0.406959 0.984640
vt 0.332945 0.801449
vt 0.332012 0.908373
vt 0.516136 0.727435
vt 0.409212 0.726502
vt 0.591083 0.803701
vt 0.591083 0.803701
vt 0.590150 0.910626
vt 0.409212 0.726502
vt 0.332945 0.801449
vt 0.516136 0.727435
vt 0.590150 0.910626
vt 0.513883 0.985573
vt 0.406959 0.984640
vt 0.332945 0.801449
vt 0.332012 0.908373
vt 0.516136 0.727435
vt 0.409212 0.726502
vt 0.591083 0.803701
vn 0.2709 -0.8060 0.5263
vn -0.7561 0.1602 0.6345
vn -0.1227 -0.9871 0.1030
vn -0.0574 -0.6298 -0.7746
vn 0.9922 -0.1244 -0.0098
vn 0.7529 -0.6298 0.1910
vn 0.9612 0.2755 0.0162
vn 0.6162 -0.7259 0.3057
vn 0.9475 -0.3185 0.0277
vn 0.4713 0.8060 0.3582
vn 0.9885 -0.1308 -0.0758
vn -0.2463 0.1308 0.9603
vn 0.9170 -0.3986 -0.0158
vn -0.1748 0.3986 0.9003
vn 0.0658 -0.7126 0.6985
vn 0.6764 0.7126 0.1861
vn 0.9559 0.2897 -0.0484
vn -0.2137 -0.2897 0.9330
vn 0.5930 -0.7634 0.2561
vn 0.1492 0.7634 0.6285
vn 0.7562 -0.1602 -0.6345
vn 0.1227 0.9871 -0.1030
vn -0.8876 -0.4540 -0.0780
vn 0.3099 -0.7664 0.5627
vn -0.0774 -0.4540 0.8877
vn -0.5004 -0.7664 -0.4029
vn 0.1819 -0.1244 -0.9754
vn 0.8876 0.4539 0.0780
vn 0.0774 0.4540 -0.8877
vn -0.9922 0.1244 0.0098
vn -0.1819 0.1244 0.9754
vn -0.7529 0.6298 -0.1910
vn 0.0574 0.6298 0.7746
vn -0.3099 0.7664 -0.5627
vn 0.5004 0.7664 0.4029
vn -0.3739 -0.8728 0.3138
vn 0.6686 -0.4881 -0.5610
vn 0.3739 0.8728 -0.3138
vn -0.6686 0.4881 0.5610
vn -0.5669 0.7471 -0.3471
vn -0.1139 0.3790 0.9184
vn 0.2434 0.7471 0.6185
vn -0.9242 0.3790 -0.0473
vn -0.1672 -0.2112 0.9630
vn -0.9774 -0.2112 -0.0026
vn 0.1148 -0.6776 0.7264
vn -0.6954 -0.6776 -0.2392
vn 0.5669 -0.7471 0.3471
vn -0.2434 -0.7471 -0.6185
vn -0.1148 0.6776 -0.7264
vn 0.6954 0.6776 0.2392
vn 0.1672 0.2112 -0.9630
vn 0.9774 0.2112 0.0026
vn 0.1139 -0.3790 -0.9184
vn 0.9242 -0.3790 0.0473
vn 0.2718 -0.9349 -0.2281
vn 0.7162 0.3548 -0.6010
vn -0.2718 0.9349 0.2281
vn -0.7162 -0.3548 0.6010
vn -0.9475 0.3185 -0.0277
vn -0.1509 -0.2755 0.9494
vn -0.1373 0.3185 0.9379
vn -0.9612 -0.2755 -0.0162
vn 0.1612 -0.7081 0.6875
vn -0.6491 -0.7081 -0.2781
vn -0.1941 -0.7259 -0.6599
vn 0.1373 -0.3185 -0.9379
vn -0.6161 0.7259 -0.3057
vn 0.1941 0.7259 0.6599
vn -0.1612 0.7081 -0.6875
vn 0.6491 0.7081 0.2781
vn 0.1509 0.2755 -0.9494
usemtl battery_0
s 1
f 1/1/1 2/2/2 3/3/3
f 4/4/4 5/5/5 6/6/6
f 7/7/7 8/8/8 9/9/9
f 10/10/10 1/11/1 11/12/11
f 1/11/1 10/10/10 12/13/12
f 13/14/13 14/15/14 15/16/15
f 14/15/14 13/14/13 16/17/16
f 17/18/17 18/19/18 19/20/19
f 18/19/18 17/18/17 20/21/20
f 21/22/21 10/23/10 11/24/11
f 10/23/10 21/22/21 22/25/22
f 22/25/22 12/26/12 10/23/10
f 12/26/12 22/25/22 2/2/2
f 2/2/2 1/1/1 12/26/12
f 21/27/21 1/1/1 3/3/3
f 1/1/1 21/27/21 11/28/11
f 23/29/23 24/30/24 25/31/25
f 24/30/24 23/29/23 26/32/26
f 26/32/26 6/6/6 24/30/24
f 6/6/6 26/32/26 4/4/4
f 5/5/5 4/4/4 27/33/27
f 27/33/27 28/34/28 5/5/5
f 28/34/28 27/33/27 29/35/29
f 25/36/25 30/37/30 23/38/23
f 30/37/30 25/36/25 31/39/31
f 31/39/31 32/40/32 30/37/30
f 32/40/32 31/39/31 33/41/33
f 33/41/33 34/42/34 32/40/32
f 34/42/34 33/41/33 35/43/35
f 35/43/35 29/44/29 34/42/34
f 29/44/29 35/43/35 28/45/28
f 36/46/36 13/47/13 15/48/15
f 13/47/13 36/46/36 37/49/37
f 37/49/37 16/50/16 13/47/13
f 16/50/16 37/49/37 38/51/38
f 38/51/38 14/52/14 16/50/16
f 14/52/14 38/51/38 39/53/39
f 36/54/36 14/52/14 39/53/39
f 14/52/14 36/54/36 15/55/15
f 40/56/40 41/57/41 42/58/42
f 41/57/41 40/56/40 43/59/43
f 43/59/43 44/60/44 41/57/41
f 44/60/44 43/59/43 45/61/45
f 45/61/45 46/62/46 44/60/44
f 46/62/46 45/61/45 47/63/47
f 47/63/47 48/64/48 46/62/46
f 48/64/48 47/63/47 49/65/49
f 42/66/42 50/67/50 40/68/40
f 50/67/50 42/66/42 51/69/51
f 51/69/51 52/70/52 50/67/50
f 52/70/52 51/69/51 53/71/53
f 53/71/53 54/72/54 52/70/52
f 54/72/54 53/71/53 55/73/55
f 55/73/55 49/74/49 54/72/54
f 49/74/49 55/73/55 48/75/48
f 56/76/56 17/77/17 19/78/19
f 17/77/17 56/76/56 57/79/57
f 57/79/57 20/80/20 17/77/17
f 20/80/20 57/79/57 58/81/58
f 58/81/58 18/82/18 20/80/20
f 18/82/18 58/81/58 59/83/59
f 56/84/56 18/82/18 59/83/59
f 18/82/18 56/84/56 19/85/19
f 60/86/60 61/87/61 62/88/62
f 61/87/61 60/86/60 63/89/63
f 63/89/63 64/90/64 61/87/61
f 64/90/64 63/89/63 65/91/65
f 65/91/65 8/92/8 64/90/64
f 8/92/8 65/91/65 66/93/66
f 66/93/66 9/94/9 8/92/8
f 9/94/9 66/93/66 67/95/67
f 62/96/62 68/97/68 60/98/60
f 68/97/68 62/96/62 69/99/69
f 69/99/69 70/100/70 68/97/68
f 70/100/70 69/99/69 71/101/71
f 71/101/71 72/102/72 70/100/70
f 72/102/72 71/101/71 7/103/7
f 7/103/7 67/104/67 72/102/72
f 67/104/67 7/103/7 9/105/9
f 24/106/24 6/107/6 5/108/5
f 35/109/35 5/108/5 28/110/28
f 24/106/24 5/108/5 35/109/35
f 24/106/24 35/109/35 31/111/31
f 31/111/31 35/109/35 33/112/33
f 24/106/24 31/111/31 25/113/25
f 4/114/4 26/115/26 23/116/23
f 32/117/32 23/116/23 30/118/30
f 4/114/4 23/116/23 32/117/32
f 4/114/4 32/117/32 29/119/29
f 29/119/29 32/117/32 34/120/34
f 4/114/4 29/119/29 27/121/27
f 41/122/41 44/123/44 46/124/46
f 55/125/55 46/124/46 48/126/48
f 41/122/41 46/124/46 55/125/55
f 41/122/41 55/125/55 51/127/51
f 51/127/51 55/125/55 53/128/53
f 41/122/41 51/127/51 42/129/42
f 45/130/45 43/131/43 40/132/40
f 52/133/52 40/132/40 50/134/50
f 45/130/45 40/132/40 52/133/52
f 45/130/45 52/133/52 49/135/49
f 49/135/49 52/133/52 54/136/54
f 45/130/45 49/135/49 47/137/47
f 61/138/61 64/139/64 8/8/8
f 61/138/61 8/8/8 7/7/7
f 61/138/61 7/7/7 69/140/69
f 69/140/69 7/7/7 71/141/71
f 61/138/61 69/140/69 62/142/62
f 65/143/65 63/144/63 60/145/60
f 70/146/70 60/145/60 68/147/68
f 65/143/65 60/145/60 70/146/70
f 65/143/65 70/146/70 67/148/67
f 67/148/67 70/146/70 72/149/72
f 65/143/65 67/148/67 66/150/66
